<?xml version="1.0" encoding="UTF-8"?><svg id="Layer_2" xmlns="http://www.w3.org/2000/svg" viewBox="0 0 1186.9 257.48"><defs><style>.cls-1{fill:#d5872b;}.cls-2{fill:#fff;}.cls-3{fill:#f2f2f2;}.cls-4{fill:#0a4896;}.cls-5{fill:#20253a;}.cls-6{fill:#d5872b;}.cls-7{fill:#060a20;}</style></defs><g id="Layer_1-2"><rect class="cls-7" x="2.5" y="2.5" width="1181.9" height="252.48" rx="25.15" ry="25.15"/><path class="cls-5" d="M1159.26,257.48H27.65c-15.24,0-27.65-12.4-27.65-27.65V27.65C0,12.4,12.4,0,27.65,0h1131.61c15.24,0,27.65,12.4,27.65,27.65v202.18c0,15.24-12.4,27.65-27.65,27.65ZM27.65,5C15.16,5,5,15.16,5,27.65v202.18c0,12.49,10.16,22.65,22.65,22.65h1131.61c12.49,0,22.65-10.16,22.65-22.65V27.65c0-12.49-10.16-22.65-22.65-22.65H27.65Z"/><path class="cls-3" d="M288.88,39.34l13.59,13.66v17.97h-17.7v-13.86h-22.01v57.22h22.01v-13.86h17.7v18.03l-13.59,13.59h-30.3l-13.59-13.59V53l13.59-13.66h30.3Z"/><path class="cls-3" d="M356.31,39.34l13.59,13.66v65.51l-13.59,13.59h-30.3l-13.59-13.59V53l13.59-13.66h30.3ZM352.2,57.11h-22.01v57.22h22.01v-57.22Z"/><path class="cls-3" d="M397.62,114.33h29.31v17.77h-47.08V39.34h17.77v74.99Z"/><path class="cls-3" d="M454.64,114.33h29.31v17.77h-47.08V39.34h17.77v74.99Z"/><path class="cls-3" d="M541.03,39.34v17.77h-29.37v19.76h23.47v17.7h-23.47v19.76h29.37v17.77h-47.14V39.34h47.14Z"/><path class="cls-3" d="M594.87,39.34l13.59,13.66v17.97h-17.7v-13.86h-22.01v57.22h22.01v-19.76h-10.21v-17.7h27.91v41.64l-13.59,13.59h-30.3l-13.59-13.59V53l13.59-13.66h30.3Z"/><path class="cls-3" d="M665.55,39.34v17.77h-29.37v19.76h23.47v17.7h-23.47v19.76h29.37v17.77h-47.14V39.34h47.14Z"/><path class="cls-3" d="M737.69,39.34l13.59,13.66v17.97h-17.7v-13.86h-22.01v57.22h22.01v-13.86h17.7v18.03l-13.59,13.59h-30.3l-13.59-13.59V53l13.59-13.66h30.3Z"/><path class="cls-3" d="M805.12,39.34l13.59,13.66v65.51l-13.59,13.59h-30.3l-13.59-13.59V53l13.59-13.66h30.3ZM801.01,57.11h-22.01v57.22h22.01v-57.22Z"/><path class="cls-3" d="M868.37,39.34h17.77v79.17l-13.59,13.59h-30.3l-13.59-13.59V39.34h17.77v74.99h21.95V39.34Z"/><path class="cls-3" d="M939.52,39.34h17.77v92.76h-19.96l-23.47-52.84v52.84h-17.77V39.34h19.96l23.47,52.84v-52.84Z"/><path class="cls-3" d="M1019.28,39.34v17.77h-17.17v74.99h-17.77V57.11h-17.11v-17.77h52.05Z"/><path class="cls-3" d="M1076.36,39.34v17.77h-29.37v19.76h23.47v17.7h-23.47v19.76h29.37v17.77h-47.14V39.34h47.14Z"/><path class="cls-3" d="M1130.2,39.34l13.59,13.66v28.05l-4.84,4.84,4.84,4.71v41.51h-17.7v-35.27h-22.01v35.27h-17.77V39.34h43.89ZM1126.09,57.11h-22.01v22.01h22.01v-22.01Z"/><rect class="cls-4" x="118.88" y="32.84" width="110.09" height="190" rx="13.14" ry="13.14"/><rect class="cls-6" x="38.97" y="32.84" width="80.22" height="190" rx="13.14" ry="13.14"/><polygon points="118.72 74.25 153.2 74.25 156.02 98.19 190.03 98.19 188.62 63.45 159.3 37.39 103.24 39.04 76.26 67.79 77.67 179.88 107.46 214.86 163.05 214.86 190.03 190.68 187.21 152.65 152.26 153.82 151.79 178.71 120.13 179.88 118.72 74.25"/><path class="cls-2" d="M198.11,148.97v46.11l-29.58,27.61h-66.56l-32.14-35.87v-122.4l32.43-31.6h65.99l29.87,31.6v40.42h-50.91v-25.33h-22.47v96.5h22.47v-27.04h50.91ZM183.03,161.78h-20.76v17.36l-10.52,9.68h-31.86l-10.24-11.67v-101.05l9.67-9.39h32.43l10.52,11.1v14.23h20.76v-22.2l-22.75-24.2h-49.21l-26.17,25.62v109.59l26.17,29.03h49.21l22.75-21.35v-26.76Z"/><path class="cls-1" d="M275.34,150.91l9.4,9.45v12.42h-12.24v-9.58h-15.22v39.57h15.22v-9.58h12.24v12.47l-9.4,9.4h-20.95l-9.4-9.4v-45.3l9.4-9.45h20.95Z"/><path class="cls-1" d="M301.61,215.06h-12.29l17.29-64.14h12.29l16.28,64.14h-12.24l-2.8-10.91h-15.59l-2.93,10.91ZM312.57,174.34l-4.72,17.51h9.17l-4.45-17.51Z"/><path class="cls-1" d="M375.98,150.91h13.3v64.14h-12.29v-26l-6.05,26h-10.55l-6.05-26v26h-12.29v-64.14h13.3l10.32,34.57,10.32-34.57Z"/><path class="cls-1" d="M426.51,150.91l9.4,9.45v20.91l-9.4,9.4h-18.06v24.39h-12.29v-64.14h30.35ZM423.62,163.2h-15.18v15.22h15.18v-15.22Z"/><path class="cls-1" d="M470.25,150.91h12.29v54.74l-9.4,9.4h-20.95l-9.4-9.4v-54.74h12.29v51.86h15.18v-51.86Z"/><path class="cls-1" d="M519.76,150.91l9.4,9.45v12.42h-12.24v-9.58h-15.22v13.66h17.83l6.33,6.19-.05.05,3.35,3.25v19.3l-9.4,9.4h-20.95l-9.4-9.4v-12.47h12.29v9.58h15.22v-13.66h-18.34l-9.17-9.35v-19.39l9.4-9.45h20.95Z"/><path class="cls-1" d="M579.05,150.91l9.4,9.45v12.42h-12.24v-9.58h-15.22v39.57h15.22v-9.58h12.24v12.47l-9.4,9.4h-20.95l-9.4-9.4v-45.3l9.4-9.45h20.95Z"/><path class="cls-1" d="M595.32,150.91h12.29v64.14h-12.29v-64.14Z"/><path class="cls-1" d="M644.84,150.91l9.4,9.45v19.39l-3.35,3.35,3.35,3.25v28.7h-12.24v-24.39h-15.22v24.39h-12.29v-64.14h30.35ZM642,163.2h-15.22v15.22h15.22v-15.22Z"/><path class="cls-1" d="M691.47,150.91l9.4,9.45v12.42h-12.24v-9.58h-15.22v39.57h15.22v-9.58h12.24v12.47l-9.4,9.4h-20.95l-9.4-9.4v-45.3l9.4-9.45h20.95Z"/><path class="cls-1" d="M735.21,150.91h12.29v54.74l-9.4,9.4h-20.95l-9.4-9.4v-54.74h12.29v51.86h15.18v-51.86Z"/><path class="cls-1" d="M754.37,150.91h12.29v64.14h-12.29v-64.14Z"/><path class="cls-1" d="M809.53,150.91v12.29h-11.88v51.85h-12.29v-51.85h-11.83v-12.29h35.99Z"/><polygon class="cls-3" points="1093.5 171.28 1061.29 171.28 1061.29 197.28 1083.3 197.28 1083.3 203.07 1061.29 202.87 1061.29 212.88 1093.5 212.88 1093.5 184.48 1071.9 184.48 1071.81 179.79 1093.5 179.68 1093.5 171.28"/><polygon class="cls-3" points="951.08 212.47 951.08 180.87 962.88 180.87 962.88 212.47 972.88 212.47 972.88 170.87 941.08 170.87 941.08 212.47 951.08 212.47"/><polygon class="cls-3" points="979.08 170.87 979.08 212.47 1020.69 212.47 1020.69 170.87 1010.49 170.87 1010.49 202.47 1004.69 202.47 1004.69 180.07 993.88 180.07 993.88 201.87 988.48 201.87 988.48 170.87 979.08 170.87"/><polygon class="cls-3" points="1056.49 170.87 1056.49 181.67 1036.09 181.67 1036.09 187.47 1052.09 187.47 1052.09 197.47 1036.09 197.47 1036.09 202.67 1056.49 202.67 1056.49 212.47 1026.69 212.47 1026.69 170.87 1056.49 170.87"/><polygon class="cls-3" points="1111.8 198.97 1101.8 198.97 1101.8 208.47 1107.9 208.47 1107.9 204.67 1105.3 204.67 1105.3 202.47 1111.8 202.47 1111.8 212.88 1097.2 212.88 1097.2 194.87 1111.8 194.87 1111.8 198.97"/><polygon class="cls-3" points="1127.05 198.97 1117.05 198.97 1117.05 208.47 1123.15 208.47 1123.15 204.67 1120.55 204.67 1120.55 202.47 1127.05 202.47 1127.05 212.88 1112.45 212.88 1112.45 194.87 1127.05 194.87 1127.05 198.97"/><path class="cls-3" d="M942.1,164.03v-11.36h2.32v4.59h4.95v-4.59h2.33v11.36h-2.33v-4.84h-4.95v4.84h-2.32Z"/><path class="cls-3" d="M957.52,164.19c-.85,0-1.59-.18-2.22-.55s-1.11-.88-1.44-1.54c-.34-.66-.51-1.42-.51-2.3s.17-1.66.51-2.31.82-1.17,1.44-1.54c.62-.37,1.37-.55,2.22-.55s1.6.18,2.22.55c.62.37,1.1.88,1.44,1.54s.51,1.43.51,2.31-.17,1.64-.51,2.3c-.34.66-.82,1.17-1.44,1.54s-1.36.55-2.22.55ZM957.52,162.4c.41,0,.75-.11,1.02-.34.27-.23.48-.54.62-.93.14-.39.21-.84.21-1.33s-.07-.95-.21-1.34c-.14-.39-.34-.7-.62-.92s-.62-.33-1.02-.33-.75.11-1.02.33c-.27.22-.48.53-.61.92-.14.39-.21.84-.21,1.34s.07.94.21,1.33c.14.39.34.7.61.93.27.23.61.34,1.02.34Z"/><path class="cls-3" d="M966.67,164.19c-.69,0-1.29-.1-1.82-.29-.53-.2-.96-.48-1.3-.85-.33-.37-.55-.82-.65-1.35l2.13-.37c.11.4.31.69.59.89.28.2.65.3,1.12.3.44,0,.78-.08,1.03-.25.25-.17.38-.38.38-.63,0-.22-.09-.41-.27-.55-.18-.14-.46-.25-.83-.33l-1.47-.31c-.82-.17-1.44-.45-1.84-.86-.41-.4-.61-.92-.61-1.56,0-.55.15-1.02.45-1.41s.72-.7,1.25-.91c.53-.21,1.16-.32,1.88-.32.67,0,1.25.09,1.75.28.49.19.89.45,1.2.79.3.34.51.74.61,1.21l-2.03.36c-.09-.29-.25-.53-.5-.71-.25-.19-.58-.28-1-.28-.38,0-.69.08-.95.24-.25.16-.38.37-.38.63,0,.21.08.39.25.54.17.15.45.26.85.34l1.53.3c.82.17,1.44.44,1.84.82.4.38.6.87.6,1.48,0,.56-.16,1.05-.49,1.47s-.77.75-1.35.98c-.57.23-1.23.35-1.98.35Z"/><path class="cls-3" d="M976.26,155.5v1.75h-5.05v-1.75h5.05ZM972.38,153.48h2.29v8.06c0,.27.06.47.18.6.12.13.32.19.6.19.09,0,.21-.01.37-.03.16-.02.28-.04.36-.07l.33,1.71c-.25.08-.51.13-.76.16-.25.03-.49.05-.72.05-.85,0-1.51-.21-1.96-.62s-.68-1.01-.68-1.79v-8.25Z"/><path class="cls-3" d="M981.44,164.19c-.87,0-1.62-.18-2.25-.53-.63-.36-1.11-.86-1.45-1.52-.34-.66-.51-1.43-.51-2.33s.17-1.65.5-2.31c.34-.66.81-1.18,1.43-1.55.62-.37,1.34-.56,2.17-.56.56,0,1.08.09,1.56.27.48.18.91.45,1.27.8.37.36.65.81.86,1.35.21.54.31,1.17.31,1.91v.64h-7.16v-1.43h6.04l-1.07.38c0-.44-.07-.83-.2-1.16-.13-.33-.34-.58-.6-.76-.27-.18-.6-.27-.99-.27s-.73.09-1.01.27c-.28.18-.49.43-.63.74s-.21.67-.21,1.07v1.01c0,.49.08.91.25,1.24.17.33.4.59.69.75.3.17.64.25,1.04.25.27,0,.51-.04.73-.11s.41-.19.56-.34c.16-.15.27-.33.35-.55l2.07.39c-.14.47-.38.88-.72,1.23-.34.35-.77.63-1.28.82-.51.19-1.1.29-1.76.29Z"/><path class="cls-3" d="M990,164.17c-.65,0-1.24-.17-1.76-.51-.53-.34-.94-.83-1.25-1.49-.31-.65-.46-1.45-.46-2.4s.16-1.78.47-2.43.73-1.14,1.26-1.46,1.1-.49,1.73-.49c.48,0,.88.08,1.2.24.32.16.58.36.78.6s.35.47.44.69h.08v-4.27h2.29v11.36h-2.25v-1.36h-.11c-.1.23-.25.46-.45.69-.2.23-.46.43-.78.58-.32.16-.71.24-1.18.24ZM990.71,162.33c.39,0,.72-.11.99-.32.27-.21.48-.51.62-.9.14-.38.21-.83.21-1.34s-.07-.97-.21-1.35c-.14-.38-.35-.67-.62-.88s-.61-.32-1-.32-.74.11-1.01.33c-.27.22-.48.52-.61.9-.14.38-.21.82-.21,1.32s.07.94.21,1.33.35.69.62.91c.27.22.61.33,1,.33Z"/><path class="cls-3" d="M1000.49,164.03v-11.36h4.5c.83,0,1.53.13,2.08.38.56.25.97.6,1.25,1.03.28.44.42.94.42,1.51,0,.45-.09.84-.27,1.17s-.42.6-.73.82-.66.36-1.05.45v.11c.43.02.83.14,1.21.36.38.23.69.54.92.95s.35.89.35,1.44c0,.6-.15,1.14-.44,1.61s-.73.84-1.31,1.12c-.58.27-1.29.41-2.15.41h-4.79ZM1002.81,157.44h1.84c.33,0,.63-.06.89-.18.26-.12.47-.29.62-.51.15-.22.22-.48.22-.79,0-.41-.15-.75-.44-1.01-.29-.26-.71-.39-1.25-.39h-1.88v2.87ZM1002.81,162.11h2.01c.68,0,1.18-.13,1.49-.4.31-.26.47-.61.47-1.04,0-.32-.08-.6-.23-.85-.16-.25-.38-.44-.66-.58-.29-.14-.62-.21-1.01-.21h-2.07v3.08Z"/><path class="cls-3" d="M1010.7,167.04l.53-1.72.28.07c.3.08.58.1.82.07.24-.04.43-.13.58-.29.14-.16.23-.38.26-.66l.06-.46-3.2-8.54h2.43l1.43,4.42c.17.56.31,1.12.42,1.68.11.56.23,1.14.38,1.75h-.53c.14-.61.27-1.2.41-1.76.14-.56.3-1.12.48-1.67l1.49-4.42h2.4l-3.62,9.53c-.17.46-.39.85-.66,1.19-.27.34-.61.59-1.01.78-.4.18-.89.27-1.46.27-.31,0-.59-.02-.85-.06-.26-.04-.48-.1-.64-.16Z"/><path class="cls-3" d="M1021.79,158.52c-.37,0-.68-.13-.94-.38-.25-.25-.38-.56-.38-.93s.13-.68.38-.93c.25-.25.57-.38.94-.38s.68.13.94.38c.25.25.38.56.38.93s-.13.68-.38.93c-.25.25-.57.38-.94.38ZM1021.79,164.17c-.37,0-.68-.13-.94-.38-.25-.25-.38-.56-.38-.93s.13-.68.38-.93c.25-.25.57-.38.94-.38s.68.13.94.38c.25.25.38.56.38.93s-.13.68-.38.93c-.25.25-.57.38-.94.38Z"/></g></svg>